<?xml version="1.0" encoding="UTF-8" standalone="no"?>
<!-- Created with Inkscape (http://www.inkscape.org/) -->

<svg
   xmlns:dc="http://purl.org/dc/elements/1.1/"
   xmlns:cc="http://creativecommons.org/ns#"
   xmlns:rdf="http://www.w3.org/1999/02/22-rdf-syntax-ns#"
   xmlns:svg="http://www.w3.org/2000/svg"
   xmlns="http://www.w3.org/2000/svg"
   xmlns:sodipodi="http://sodipodi.sourceforge.net/DTD/sodipodi-0.dtd"
   xmlns:inkscape="http://www.inkscape.org/namespaces/inkscape"
   version="1.1"
   id="svg4518"
   xml:space="preserve"
   width="1200"
   height="800"
   viewBox="0 0 1200 800"
   sodipodi:docname="nebulae.svg"
   inkscape:export-filename="nebulae.png"
   inkscape:export-xdpi="318.35001"
   inkscape:export-ydpi="318.35001"
   inkscape:version="0.92.4 (5da689c313, 2019-01-14)"><metadata
     id="metadata4524"><rdf:RDF><cc:Work
         rdf:about=""><dc:format>image/svg+xml</dc:format><dc:type
           rdf:resource="http://purl.org/dc/dcmitype/StillImage" /><dc:title></dc:title></cc:Work></rdf:RDF></metadata><defs
     id="defs4522"><clipPath
       clipPathUnits="userSpaceOnUse"
       id="clipPath4534"><path
         d="M 0,600 H 900 V 0 H 0 Z"
         id="path4532"
         inkscape:connector-curvature="0" /></clipPath><linearGradient
       x1="0"
       y1="0"
       x2="1"
       y2="0"
       gradientUnits="userSpaceOnUse"
       gradientTransform="matrix(104.63054,0,0,-104.63054,525.39581,366.81314)"
       spreadMethod="pad"
       id="linearGradient4562"><stop
         style="stop-opacity:1;stop-color:#2b3990"
         offset="0"
         id="stop4552" /><stop
         style="stop-opacity:1;stop-color:#2b3990"
         offset="0.0920398"
         id="stop4554" /><stop
         style="stop-opacity:1;stop-color:#1c75bc"
         offset="0.634328"
         id="stop4556" /><stop
         style="stop-opacity:1;stop-color:#502075"
         offset="0.947761"
         id="stop4558" /><stop
         style="stop-opacity:1;stop-color:#502075"
         offset="1"
         id="stop4560" /></linearGradient><linearGradient
       x1="0"
       y1="0"
       x2="1"
       y2="0"
       gradientUnits="userSpaceOnUse"
       gradientTransform="matrix(89.025856,0,0,-89.025856,525.17102,338.57938)"
       spreadMethod="pad"
       id="linearGradient4588"><stop
         style="stop-opacity:1;stop-color:#2b3990"
         offset="0"
         id="stop4578" /><stop
         style="stop-opacity:1;stop-color:#2b3990"
         offset="0.0920398"
         id="stop4580" /><stop
         style="stop-opacity:1;stop-color:#1c75bc"
         offset="0.634328"
         id="stop4582" /><stop
         style="stop-opacity:1;stop-color:#502075"
         offset="0.947761"
         id="stop4584" /><stop
         style="stop-opacity:1;stop-color:#502075"
         offset="1"
         id="stop4586" /></linearGradient><linearGradient
       x1="0"
       y1="0"
       x2="1"
       y2="0"
       gradientUnits="userSpaceOnUse"
       gradientTransform="matrix(74.98011,0,0,-74.98011,525.93555,298.97571)"
       spreadMethod="pad"
       id="linearGradient4614"><stop
         style="stop-opacity:1;stop-color:#2b3990"
         offset="0"
         id="stop4604" /><stop
         style="stop-opacity:1;stop-color:#2b3990"
         offset="0.0920398"
         id="stop4606" /><stop
         style="stop-opacity:1;stop-color:#1c75bc"
         offset="0.634328"
         id="stop4608" /><stop
         style="stop-opacity:1;stop-color:#502075"
         offset="0.947761"
         id="stop4610" /><stop
         style="stop-opacity:1;stop-color:#502075"
         offset="1"
         id="stop4612" /></linearGradient><linearGradient
       x1="0"
       y1="0"
       x2="1"
       y2="0"
       gradientUnits="userSpaceOnUse"
       gradientTransform="matrix(57.606705,0,0,-57.606705,524.30157,265.8027)"
       spreadMethod="pad"
       id="linearGradient4640"><stop
         style="stop-opacity:1;stop-color:#2b3990"
         offset="0"
         id="stop4630" /><stop
         style="stop-opacity:1;stop-color:#2b3990"
         offset="0.0920398"
         id="stop4632" /><stop
         style="stop-opacity:1;stop-color:#1c75bc"
         offset="0.634328"
         id="stop4634" /><stop
         style="stop-opacity:1;stop-color:#502075"
         offset="0.947761"
         id="stop4636" /><stop
         style="stop-opacity:1;stop-color:#502075"
         offset="1"
         id="stop4638" /></linearGradient><linearGradient
       x1="0"
       y1="0"
       x2="1"
       y2="0"
       gradientUnits="userSpaceOnUse"
       gradientTransform="matrix(71.217682,0,0,-71.217682,443.55023,276.73047)"
       spreadMethod="pad"
       id="linearGradient4666"><stop
         style="stop-opacity:1;stop-color:#2b3990"
         offset="0"
         id="stop4656" /><stop
         style="stop-opacity:1;stop-color:#2b3990"
         offset="0.0920398"
         id="stop4658" /><stop
         style="stop-opacity:1;stop-color:#1c75bc"
         offset="0.634328"
         id="stop4660" /><stop
         style="stop-opacity:1;stop-color:#502075"
         offset="0.947761"
         id="stop4662" /><stop
         style="stop-opacity:1;stop-color:#502075"
         offset="1"
         id="stop4664" /></linearGradient><linearGradient
       x1="0"
       y1="0"
       x2="1"
       y2="0"
       gradientUnits="userSpaceOnUse"
       gradientTransform="matrix(78.113068,0,0,-78.113068,436.56491,338.15967)"
       spreadMethod="pad"
       id="linearGradient4692"><stop
         style="stop-opacity:1;stop-color:#2b3990"
         offset="0"
         id="stop4682" /><stop
         style="stop-opacity:1;stop-color:#2b3990"
         offset="0.0920398"
         id="stop4684" /><stop
         style="stop-opacity:1;stop-color:#1c75bc"
         offset="0.634328"
         id="stop4686" /><stop
         style="stop-opacity:1;stop-color:#502075"
         offset="0.947761"
         id="stop4688" /><stop
         style="stop-opacity:1;stop-color:#502075"
         offset="1"
         id="stop4690" /></linearGradient><linearGradient
       x1="0"
       y1="0"
       x2="1"
       y2="0"
       gradientUnits="userSpaceOnUse"
       gradientTransform="matrix(96.236061,0,0,-96.236061,417.48254,327.33685)"
       spreadMethod="pad"
       id="linearGradient4718"><stop
         style="stop-opacity:1;stop-color:#2b3990"
         offset="0"
         id="stop4708" /><stop
         style="stop-opacity:1;stop-color:#2b3990"
         offset="0.0920398"
         id="stop4710" /><stop
         style="stop-opacity:1;stop-color:#1c75bc"
         offset="0.634328"
         id="stop4712" /><stop
         style="stop-opacity:1;stop-color:#502075"
         offset="0.947761"
         id="stop4714" /><stop
         style="stop-opacity:1;stop-color:#502075"
         offset="1"
         id="stop4716" /></linearGradient><linearGradient
       x1="0"
       y1="0"
       x2="1"
       y2="0"
       gradientUnits="userSpaceOnUse"
       gradientTransform="matrix(95.981163,0,0,-95.981163,417.24274,316.39407)"
       spreadMethod="pad"
       id="linearGradient4744"><stop
         style="stop-opacity:1;stop-color:#2b3990"
         offset="0"
         id="stop4734" /><stop
         style="stop-opacity:1;stop-color:#2b3990"
         offset="0.0920398"
         id="stop4736" /><stop
         style="stop-opacity:1;stop-color:#1c75bc"
         offset="0.634328"
         id="stop4738" /><stop
         style="stop-opacity:1;stop-color:#502075"
         offset="0.947761"
         id="stop4740" /><stop
         style="stop-opacity:1;stop-color:#502075"
         offset="1"
         id="stop4742" /></linearGradient><linearGradient
       x1="0"
       y1="0"
       x2="1"
       y2="0"
       gradientUnits="userSpaceOnUse"
       gradientTransform="matrix(73.601143,0,0,-73.601143,334.27283,289.05228)"
       spreadMethod="pad"
       id="linearGradient4770"><stop
         style="stop-opacity:1;stop-color:#2b3990"
         offset="0"
         id="stop4760" /><stop
         style="stop-opacity:1;stop-color:#2b3990"
         offset="0.0920398"
         id="stop4762" /><stop
         style="stop-opacity:1;stop-color:#1c75bc"
         offset="0.634328"
         id="stop4764" /><stop
         style="stop-opacity:1;stop-color:#502075"
         offset="0.947761"
         id="stop4766" /><stop
         style="stop-opacity:1;stop-color:#502075"
         offset="1"
         id="stop4768" /></linearGradient><linearGradient
       x1="0"
       y1="0"
       x2="1"
       y2="0"
       gradientUnits="userSpaceOnUse"
       gradientTransform="matrix(37.160362,0,0,-37.160362,301.32477,243.38513)"
       spreadMethod="pad"
       id="linearGradient4796"><stop
         style="stop-opacity:1;stop-color:#2b3990"
         offset="0"
         id="stop4786" /><stop
         style="stop-opacity:1;stop-color:#2b3990"
         offset="0.0920398"
         id="stop4788" /><stop
         style="stop-opacity:1;stop-color:#1c75bc"
         offset="0.634328"
         id="stop4790" /><stop
         style="stop-opacity:1;stop-color:#502075"
         offset="0.947761"
         id="stop4792" /><stop
         style="stop-opacity:1;stop-color:#502075"
         offset="1"
         id="stop4794" /></linearGradient><linearGradient
       x1="0"
       y1="0"
       x2="1"
       y2="0"
       gradientUnits="userSpaceOnUse"
       gradientTransform="matrix(36.530716,0,0,-36.530716,323.46506,333.42276)"
       spreadMethod="pad"
       id="linearGradient4822"><stop
         style="stop-opacity:1;stop-color:#2b3990"
         offset="0"
         id="stop4812" /><stop
         style="stop-opacity:1;stop-color:#2b3990"
         offset="0.0920398"
         id="stop4814" /><stop
         style="stop-opacity:1;stop-color:#1c75bc"
         offset="0.634328"
         id="stop4816" /><stop
         style="stop-opacity:1;stop-color:#502075"
         offset="0.947761"
         id="stop4818" /><stop
         style="stop-opacity:1;stop-color:#502075"
         offset="1"
         id="stop4820" /></linearGradient><linearGradient
       x1="0"
       y1="0"
       x2="1"
       y2="0"
       gradientUnits="userSpaceOnUse"
       gradientTransform="matrix(65.821213,0,0,-65.821213,342.38248,343.08383)"
       spreadMethod="pad"
       id="linearGradient4848"><stop
         style="stop-opacity:1;stop-color:#2b3990"
         offset="0"
         id="stop4838" /><stop
         style="stop-opacity:1;stop-color:#2b3990"
         offset="0.0920398"
         id="stop4840" /><stop
         style="stop-opacity:1;stop-color:#1c75bc"
         offset="0.634328"
         id="stop4842" /><stop
         style="stop-opacity:1;stop-color:#502075"
         offset="0.947761"
         id="stop4844" /><stop
         style="stop-opacity:1;stop-color:#502075"
         offset="1"
         id="stop4846" /></linearGradient><clipPath
       clipPathUnits="userSpaceOnUse"
       id="clipPath4858"><path
         d="M 0,600 H 900 V 0 H 0 Z"
         id="path4856"
         inkscape:connector-curvature="0" /></clipPath><linearGradient
       x1="0"
       y1="0"
       x2="1"
       y2="0"
       gradientUnits="userSpaceOnUse"
       gradientTransform="matrix(58.236351,0,0,-58.236351,368.67499,370.50815)"
       spreadMethod="pad"
       id="linearGradient4902"><stop
         style="stop-opacity:1;stop-color:#2b3990"
         offset="0"
         id="stop4892" /><stop
         style="stop-opacity:1;stop-color:#2b3990"
         offset="0.0920398"
         id="stop4894" /><stop
         style="stop-opacity:1;stop-color:#1c75bc"
         offset="0.634328"
         id="stop4896" /><stop
         style="stop-opacity:1;stop-color:#502075"
         offset="0.947761"
         id="stop4898" /><stop
         style="stop-opacity:1;stop-color:#502075"
         offset="1"
         id="stop4900" /></linearGradient><clipPath
       clipPathUnits="userSpaceOnUse"
       id="clipPath4912"><path
         d="M 0,600 H 900 V 0 H 0 Z"
         id="path4910"
         inkscape:connector-curvature="0" /></clipPath><linearGradient
       x1="0"
       y1="0"
       x2="1"
       y2="0"
       gradientUnits="userSpaceOnUse"
       gradientTransform="matrix(129.63382,0,0,-129.63382,304.89239,267.86383)"
       spreadMethod="pad"
       id="linearGradient4956"><stop
         style="stop-opacity:1;stop-color:#2b3990"
         offset="0"
         id="stop4946" /><stop
         style="stop-opacity:1;stop-color:#2b3990"
         offset="0.0920398"
         id="stop4948" /><stop
         style="stop-opacity:1;stop-color:#1c75bc"
         offset="0.634328"
         id="stop4950" /><stop
         style="stop-opacity:1;stop-color:#502075"
         offset="0.947761"
         id="stop4952" /><stop
         style="stop-opacity:1;stop-color:#502075"
         offset="1"
         id="stop4954" /></linearGradient><clipPath
       clipPathUnits="userSpaceOnUse"
       id="clipPath4966"><path
         d="M 0,600 H 900 V 0 H 0 Z"
         id="path4964"
         inkscape:connector-curvature="0" /></clipPath></defs><sodipodi:namedview
     pagecolor="#ffffff"
     bordercolor="#666666"
     borderopacity="1"
     objecttolerance="10"
     gridtolerance="10"
     guidetolerance="10"
     inkscape:pageopacity="0"
     inkscape:pageshadow="2"
     inkscape:window-width="3840"
     inkscape:window-height="2050"
     id="namedview4520"
     showgrid="false"
     inkscape:zoom="2.25"
     inkscape:cx="583.33333"
     inkscape:cy="382.22222"
     inkscape:window-x="-12"
     inkscape:window-y="-12"
     inkscape:window-maximized="1"
     inkscape:current-layer="g4526" /><g
     id="g4526"
     inkscape:groupmode="layer"
     inkscape:label="nebulae"
     transform="matrix(1.3333333,0,0,-1.3333333,0,800)"><g
       id="g4528"
       inkscape:export-filename="nebulae.png"
       inkscape:export-xdpi="96"
       inkscape:export-ydpi="96"><g
         id="g4530"
         clip-path="url(#clipPath4534)"><g
           id="g4536"
           transform="translate(337.4209,245.8437)"><path
             d="m 0,0 c -0.12,0.21 -0.255,0.404 -0.405,0.6 l -4.077,-4.887 -1.964,-2.369 -2.278,-2.713 -24.959,-29.965 c 0.24,-0.15 0.465,-0.314 0.66,-0.495 0.135,-0.105 0.255,-0.21 0.375,-0.329 0.044,-0.045 0.089,-0.091 0.12,-0.136 l 25.318,30.385 7.615,9.13 C 0.285,-0.51 0.15,-0.24 0,0 m 0,0 c -0.12,0.21 -0.255,0.404 -0.405,0.6 l -4.077,-4.887 -1.964,-2.369 -2.278,-2.713 -24.959,-29.965 c 0.24,-0.15 0.465,-0.314 0.66,-0.495 0.135,-0.105 0.255,-0.21 0.375,-0.329 0.044,-0.045 0.089,-0.091 0.12,-0.136 l 25.318,30.385 7.615,9.13 C 0.285,-0.51 0.15,-0.24 0,0 m 292.605,182.953 -12.322,-43.711 -0.749,-2.638 -0.734,-2.608 -2.024,-7.196 -9.669,-34.282 -1.709,-6.04 -0.509,-1.83 -1.394,-4.931 -15.47,-54.908 v -0.016 l -1.349,-4.752 -0.405,-1.454 -1.784,-6.295 -5.321,-18.918 -1.858,-6.565 -3.943,4.736 -46.484,55.838 -2.084,2.504 -1.679,2.009 -0.18,0.224 -0.075,0.09 0.196,0.24 1.258,1.529 0.015,0.015 2.608,3.148 1.035,1.244 103.491,125.167 1.979,2.383 z M 177.347,47.878 144.294,7.899 l -3.628,-4.377 -3.372,4.587 -31.165,42.363 -2.608,3.537 -1.139,1.544 -3.972,5.411 -18.588,25.258 -2.129,2.894 -1.109,1.513 0.3,0.375 3.178,3.808 10.553,12.667 3.177,3.807 0.975,1.154 4.377,5.262 8.784,10.538 4.857,5.831 5.097,-6.131 59.375,-71.323 0.66,-0.794 1.648,-1.979 0.706,-0.839 0.659,-0.795 -0.135,-0.165 -0.15,-0.18 -0.3,-0.359 z M -0.405,0.6 l -4.077,-4.887 -1.964,-2.369 -2.278,-2.713 -24.959,-29.965 -4.377,-5.247 1.964,6.206 18.183,57.247 1.319,4.152 0.764,2.413 1.874,5.922 36.531,115.108 0.989,3.074 2.353,7.435 0.15,-0.195 4.198,-5.712 40.518,-55.073 3.792,-5.172 0.105,-0.135 -3.432,-4.122 -0.795,-0.959 z M 290.327,184.497 185.741,58.041 l -3.852,-4.662 -3.537,4.258 -59.541,71.532 -5.457,6.565 -0.569,0.69 -5.711,-6.865 -9.099,-10.913 -4.452,-5.352 -0.975,-1.154 -3.058,-3.687 -10.478,-12.577 -3.343,-4.002 -3.597,4.886 -40.818,55.493 -2.413,3.268 -2.669,3.643 -0.794,1.064 -0.135,-0.435 -0.33,-1.019 -2.728,-8.589 -37.52,-118.242 -4.047,-12.741 -18.243,-57.487 -3.792,-11.932 -0.375,-1.199 0.749,0.914 h 0.015 l 1.619,1.934 0.015,0.03 3.868,4.647 0.014,0.015 2.984,3.582 25.318,30.385 7.615,9.13 71.277,85.532 3.913,4.692 3.103,-4.227 18.407,-25.018 3.838,-5.232 0.899,-1.199 3.178,-4.332 31.075,-42.227 3.926,-5.352 0.571,-0.779 4.842,5.861 33.022,39.918 3.448,4.183 3.778,-4.542 46.723,-56.138 4.662,-5.606 0.914,-1.095 2.624,9.31 5.487,19.441 3.222,11.423 v 0.015 l 15.635,55.463 3.613,12.802 9.593,34.057 3.627,12.876 12.278,43.501 2.757,9.804 z M 0,0 c -0.12,0.21 -0.255,0.404 -0.405,0.6 l -4.077,-4.887 -1.964,-2.369 -2.278,-2.713 -24.959,-29.965 c 0.24,-0.15 0.465,-0.314 0.66,-0.495 0.135,-0.105 0.255,-0.21 0.375,-0.329 0.044,-0.045 0.089,-0.091 0.12,-0.136 l 25.318,30.385 7.615,9.13 C 0.285,-0.51 0.15,-0.24 0,0"
             style="fill:#502075;fill-opacity:1;fill-rule:nonzero;stroke:none"
             id="path4538"
             inkscape:connector-curvature="0" /></g></g></g><g
       id="g4540"
       inkscape:export-filename="nebulae.png"
       inkscape:export-xdpi="96"
       inkscape:export-ydpi="96"><g
         id="g4542"><g
           id="g4548"><g
             id="g4550"><path
               d="m 525.396,304.23 85.622,73.136 c -0.059,0.33 -0.089,0.674 -0.089,1.034 v 0 c 0,3.688 2.983,6.686 6.685,6.686 v 0 h 0.09 l 12.322,43.711 c -0.404,0.165 -0.779,0.36 -1.139,0.599 v 0 z"
               style="fill:url(#linearGradient4562);stroke:none"
               id="path4564"
               inkscape:connector-curvature="0" /></g></g></g></g><g
       id="g4566"
       inkscape:export-filename="nebulae.png"
       inkscape:export-xdpi="96"
       inkscape:export-ydpi="96"><g
         id="g4568"><g
           id="g4574"><g
             id="g4576"><path
               d="m 525.171,302.072 c 0.165,-0.226 0.316,-0.451 0.45,-0.691 v 0 l 71.382,28.601 c -0.149,0.57 -0.239,1.169 -0.239,1.785 v 0 c 0,3.687 2.982,6.685 6.685,6.685 v 0 c 0.359,0 0.72,-0.03 1.079,-0.09 v 0 l 9.669,34.282 c -1.214,0.72 -2.174,1.814 -2.743,3.133 v 0 z"
               style="fill:url(#linearGradient4588);stroke:none"
               id="path4590"
               inkscape:connector-curvature="0" /></g></g></g></g><g
       id="g4592"
       inkscape:export-filename="nebulae.png"
       inkscape:export-xdpi="96"
       inkscape:export-ydpi="96"><g
         id="g4594"><g
           id="g4600"><g
             id="g4602"><path
               d="m 526.19,300.002 c 0.18,-0.599 0.269,-1.229 0.269,-1.873 v 0 c 0,-0.915 -0.193,-1.799 -0.523,-2.609 v 0 l 51.326,-26.156 h 0.014 c 1.2,1.317 2.953,2.143 4.887,2.143 v 0 c 1.185,0 2.309,-0.315 3.283,-0.855 v 0 l 15.47,54.909 c -1.439,0.584 -2.624,1.664 -3.358,3.027 v 0 z"
               style="fill:url(#linearGradient4614);stroke:none"
               id="path4616"
               inkscape:connector-curvature="0" /></g></g></g></g><g
       id="g4618"
       inkscape:export-filename="nebulae.png"
       inkscape:export-xdpi="96"
       inkscape:export-ydpi="96"><g
         id="g4620"><g
           id="g4626"><g
             id="g4628"><path
               d="m 524.301,293.226 46.485,-55.837 c 1.214,1.199 2.848,1.935 4.677,1.935 v 0 c 0.389,0 0.765,-0.031 1.124,-0.106 v 0 l 5.322,18.917 c -3.583,0.12 -6.446,3.073 -6.446,6.671 v 0 c 0,1.229 0.329,2.368 0.9,3.343 v 0 l -51.178,26.066 c -0.255,-0.359 -0.553,-0.703 -0.884,-0.989"
               style="fill:url(#linearGradient4640);stroke:none"
               id="path4642"
               inkscape:connector-curvature="0" /></g></g></g></g><g
       id="g4644"
       inkscape:export-filename="nebulae.png"
       inkscape:export-xdpi="96"
       inkscape:export-ydpi="96"><g
         id="g4646"><g
           id="g4652"><g
             id="g4654"><path
               d="m 443.551,296.315 31.164,-42.362 c 0.974,0.554 2.113,0.885 3.327,0.885 v 0 c 1.349,0 2.608,-0.405 3.673,-1.095 v 0 l 33.053,39.978 c -0.915,1.02 -1.514,2.339 -1.649,3.778 v 0 l -68.025,2.219 c -0.18,-1.29 -0.72,-2.458 -1.543,-3.403"
               style="fill:url(#linearGradient4666);stroke:none"
               id="path4668"
               inkscape:connector-curvature="0" /></g></g></g></g><g
       id="g4670"
       inkscape:export-filename="nebulae.png"
       inkscape:export-xdpi="96"
       inkscape:export-ydpi="96"><g
         id="g4672"><g
           id="g4678"><g
             id="g4680"><path
               d="m 436.565,363.545 c 1.184,-1.214 1.919,-2.848 1.919,-4.692 v 0 c 0,-1.484 -0.48,-2.847 -1.304,-3.957 v 0 l 77.318,-52.66 c 0.06,0.075 0.12,0.15 0.18,0.225 v 0 l -59.375,71.323 c -1.215,-1.29 -2.923,-2.084 -4.828,-2.084 v 0 c -2.053,0 -3.897,0.93 -5.126,2.383 v 0 z"
               style="fill:url(#linearGradient4692);stroke:none"
               id="path4694"
               inkscape:connector-curvature="0" /></g></g></g></g><g
       id="g4696"
       inkscape:export-filename="nebulae.png"
       inkscape:export-xdpi="96"
       inkscape:export-ydpi="96"><g
         id="g4698"><g
           id="g4704"><g
             id="g4706"><path
               d="m 431.783,352.168 c -1.394,0 -2.684,0.42 -3.748,1.154 v 0 l -10.553,-12.667 c 0.915,-1.139 1.454,-2.593 1.454,-4.151 v 0 c 0,-0.436 -0.044,-0.871 -0.119,-1.29 v 0 l 94.871,-34.327 c 0,0.03 0.015,0.045 0.031,0.075 v 0 l -77.589,52.824 c -1.169,-1.018 -2.683,-1.618 -4.347,-1.618"
               style="fill:url(#linearGradient4718);stroke:none"
               id="path4720"
               inkscape:connector-curvature="0" /></g></g></g></g><g
       id="g4722"
       inkscape:export-filename="nebulae.png"
       inkscape:export-xdpi="96"
       inkscape:export-ydpi="96"><g
         id="g4724"><g
           id="g4730"><g
             id="g4732"><path
               d="m 417.243,332.066 18.587,-25.258 c 0.809,0.345 1.709,0.539 2.654,0.539 v 0 c 3.493,0 6.371,-2.698 6.655,-6.115 v 0 l 68.01,-2.234 c 0.015,0.15 0.045,0.315 0.074,0.465 v 0 l -94.871,34.327 c -0.27,-0.63 -0.645,-1.214 -1.109,-1.724"
               style="fill:url(#linearGradient4744);stroke:none"
               id="path4746"
               inkscape:connector-curvature="0" /></g></g></g></g><g
       id="g4748"
       inkscape:export-filename="nebulae.png"
       inkscape:export-xdpi="96"
       inkscape:export-ydpi="96"><g
         id="g4750"><g
           id="g4756"><g
             id="g4758"><path
               d="m 347.329,288.04 c 0.555,-0.973 0.869,-2.098 0.869,-3.282 v 0 c 0,-3.703 -2.998,-6.701 -6.685,-6.701 v 0 c -0.554,0 -1.094,0.075 -1.619,0.195 v 0 l -5.621,-29.636 c 1.109,-0.464 2.053,-1.214 2.743,-2.173 v 0 l 70.858,85.009 c -0.089,0.075 -0.165,0.149 -0.24,0.21 v 0 z"
               style="fill:url(#linearGradient4770);stroke:none"
               id="path4772"
               inkscape:connector-curvature="0" /></g></g></g></g><g
       id="g4774"
       inkscape:export-filename="nebulae.png"
       inkscape:export-xdpi="96"
       inkscape:export-ydpi="96"><g
         id="g4776"><g
           id="g4782"><g
             id="g4784"><path
               d="m 326.658,273.096 c 0.15,-0.54 0.225,-1.125 0.225,-1.725 v 0 c 0,-3.688 -2.998,-6.686 -6.686,-6.686 v 0 c -0.224,0 -0.465,0.016 -0.689,0.031 v 0 l -18.184,-57.247 c 0.87,-0.166 1.694,-0.494 2.414,-0.96 v 0 l 24.959,29.966 c -2.219,1.079 -3.733,3.357 -3.733,5.981 v 0 c 0,3.702 2.998,6.7 6.7,6.7 v 0 c 0.405,0 0.795,-0.03 1.17,-0.104 v 0 l 5.652,29.74 c -0.736,0.359 -1.38,0.854 -1.919,1.469 v 0 z"
               style="fill:url(#linearGradient4796);stroke:none"
               id="path4798"
               inkscape:connector-curvature="0" /></g></g></g></g><g
       id="g4800"
       inkscape:export-filename="nebulae.png"
       inkscape:export-xdpi="96"
       inkscape:export-ydpi="96"><g
         id="g4802"><g
           id="g4808"><g
             id="g4810"><path
               d="m 323.464,277.203 c 1.11,-0.615 2.025,-1.545 2.624,-2.669 v 0 l 9.594,6.941 c -0.54,0.974 -0.854,2.098 -0.854,3.283 v 0 c 0,3.477 2.638,6.325 6.041,6.655 v 0 l 19.126,100.898 z"
               style="fill:url(#linearGradient4822);stroke:none"
               id="path4824"
               inkscape:connector-curvature="0" /></g></g></g></g><g
       id="g4826"
       inkscape:export-filename="nebulae.png"
       inkscape:export-xdpi="96"
       inkscape:export-ydpi="96"><g
         id="g4828"><g
           id="g4834"><g
             id="g4836"><path
               d="m 363.069,395.054 c -0.345,0 -0.675,0.031 -1.004,0.076 v 0 L 342.383,291.383 c 1.603,-0.21 3.028,-0.99 4.062,-2.128 v 0 l 60.23,43.56 c -0.705,1.05 -1.11,2.324 -1.11,3.689 v 0 c 0,2.172 1.034,4.106 2.639,5.336 v 0 l -40.519,55.073 c -1.199,-1.154 -2.832,-1.859 -4.616,-1.859"
               style="fill:url(#linearGradient4848);stroke:none"
               id="path4850"
               inkscape:connector-curvature="0" /></g></g></g></g><g
       id="g4852"
       inkscape:export-filename="nebulae.png"
       inkscape:export-xdpi="96"
       inkscape:export-ydpi="96"><g
         id="g4854"
         clip-path="url(#clipPath4858)"><g
           id="g4860"
           transform="translate(618.0947,381.4434)"><path
             d="m 0,0 -1.874,-1.604 -4.767,-4.062 -86.283,-73.706 -1.903,-1.634 -2.609,-2.233 -0.299,-0.24 -0.63,-0.541 -0.015,-0.014 -0.3,-0.255 -0.045,-0.045 -0.285,0.195 -0.03,0.015 -0.074,0.06 h -0.016 l -0.749,0.509 -1.454,0.99 -2.773,1.903 -0.27,0.181 -77.588,52.824 -4.917,3.343 -1.244,0.855 -4.498,3.058 -56.182,38.254 -3.028,2.069 -2.668,1.813 -0.105,-0.554 -1.424,-7.495 -19.682,-103.747 -1.109,-5.86 -0.405,-2.143 -0.975,-5.127 -5.621,-29.636 -1.334,-7.06 -0.54,-2.848 -1.469,0.27 0.045,0.209 1.859,9.864 5.652,29.741 0.614,3.297 0.42,2.159 1.349,7.165 19.127,100.898 0.615,3.208 1.723,9.099 0.21,1.094 0.12,-0.075 0.825,-0.569 0.105,-0.061 6.101,-4.167 56.437,-38.419 4.812,-3.283 1.244,-0.855 4.992,-3.387 77.318,-52.661 0.84,-0.569 3.927,-2.668 4.902,4.182 1.229,1.049 85.623,73.137 5.936,5.081 0.165,0.135 z"
             style="fill:#502075;fill-opacity:1;fill-rule:nonzero;stroke:none"
             id="path4862"
             inkscape:connector-curvature="0" /></g><g
           id="g4864"
           transform="translate(584.9062,265.4805)"><path
             d="m 0,0 -0.675,-1.334 -0.539,0.284 -7.33,3.718 -51.177,26.067 -2.967,1.515 -2.803,1.424 -0.3,0.15 h -0.03 l -0.031,0.015 -0.074,0.059 h -0.015 l -0.9,0.331 -3.432,1.244 -1.41,0.509 -94.871,34.328 -3.238,1.169 -1.949,0.704 -4.497,-3.252 -1.034,-0.75 -60.305,-43.621 -6.461,-4.662 -1.769,-1.289 -2.533,-1.829 -9.909,-7.165 -5.831,-4.227 -0.194,-0.135 -0.885,1.214 1.844,1.334 4.497,3.253 9.594,6.94 3.837,2.774 1.754,1.274 5.172,3.732 60.23,43.561 5.321,3.853 0.93,0.674 0.374,-0.134 1.004,-0.36 4.513,-1.634 94.871,-34.328 0.3,-0.105 2.998,-1.094 2.323,-0.839 0.255,-0.09 0.915,-0.465 0.18,-0.089 0.449,-0.241 4.827,-2.443 51.326,-26.157 h 0.015 l 6.82,-3.479 z"
             style="fill:#502075;fill-opacity:1;fill-rule:nonzero;stroke:none"
             id="path4866"
             inkscape:connector-curvature="0" /></g><g
           id="g4868"
           transform="translate(603.7187,331.062)"><path
             d="m 0,0 -1.409,-0.57 -4.752,-1.904 -71.367,-28.586 -5.082,-2.038 -0.57,-0.225 -0.809,-0.315 -0.015,-0.015 -0.27,-0.104 h -0.36 l -0.03,0.014 -1.289,0.031 -4.647,0.149 -68.025,2.219 -4.152,0.135 -1.289,0.044 -0.39,-0.284 -5.321,-3.852 -127.595,-92.445 -8.32,-6.01 -0.015,-0.031 -0.075,-0.045 -0.884,1.215 4.842,3.508 0.014,0.015 3.733,2.698 127.296,92.219 5.426,3.927 0.824,0.6 h 0.255 l 0.36,-0.016 5.336,-0.164 68.011,-2.234 1.483,-0.045 2.129,-0.075 0.93,-0.029 1.499,-0.045 0.119,0.045 2.429,0.974 0.014,0.014 1.515,0.6 2.353,0.944 71.382,28.601 5.817,2.339 0.344,0.135 z"
             style="fill:#502075;fill-opacity:1;fill-rule:nonzero;stroke:none"
             id="path4870"
             inkscape:connector-curvature="0" /></g><g
           id="g4872"
           transform="translate(369.7544,401.7549)"><path
             d="m 0,0 c 0,-0.315 -0.015,-0.615 -0.06,-0.915 -0.075,-0.539 -0.21,-1.064 -0.405,-1.543 -0.165,-0.42 -0.374,-0.825 -0.615,-1.2 -0.284,-0.434 -0.614,-0.839 -0.989,-1.184 -1.199,-1.154 -2.833,-1.859 -4.617,-1.859 -0.344,0 -0.674,0.031 -1.004,0.076 -0.375,0.06 -0.734,0.134 -1.08,0.254 -0.119,0.045 -0.254,0.09 -0.374,0.135 -0.345,0.135 -0.689,0.315 -1.004,0.51 -1.934,1.169 -3.223,3.298 -3.223,5.726 0,3.688 2.998,6.686 6.685,6.686 C -2.983,6.686 0,3.688 0,0"
             style="fill:#502075;fill-opacity:1;fill-rule:nonzero;stroke:none"
             id="path4874"
             inkscape:connector-curvature="0" /></g><g
           id="g4876"
           transform="translate(418.9365,336.5034)"><path
             d="m 0,0 c 0,-0.435 -0.045,-0.87 -0.12,-1.289 -0.105,-0.495 -0.255,-0.975 -0.464,-1.424 -0.27,-0.63 -0.645,-1.215 -1.11,-1.724 -0.329,-0.375 -0.704,-0.72 -1.124,-1.004 -1.094,-0.78 -2.429,-1.245 -3.868,-1.245 -1.139,0 -2.218,0.285 -3.147,0.78 -0.45,0.239 -0.855,0.524 -1.23,0.854 -0.089,0.075 -0.165,0.15 -0.239,0.21 -0.36,0.345 -0.69,0.735 -0.96,1.154 -0.704,1.049 -1.109,2.324 -1.109,3.688 0,2.173 1.034,4.107 2.638,5.336 0.39,0.3 0.825,0.555 1.29,0.765 0.839,0.39 1.768,0.599 2.757,0.599 1.589,0 3.043,-0.554 4.183,-1.484 C -2.114,4.901 -1.754,4.557 -1.454,4.152 -0.54,3.013 0,1.559 0,0"
             style="fill:#502075;fill-opacity:1;fill-rule:nonzero;stroke:none"
             id="path4878"
             inkscape:connector-curvature="0" /></g></g></g><g
       id="g4880"
       inkscape:export-filename="nebulae.png"
       inkscape:export-xdpi="96"
       inkscape:export-ydpi="96"><g
         id="g4882"><g
           id="g4888"><g
             id="g4890"><path
               d="m 368.675,398.097 40.818,-55.493 c 0.839,0.391 1.768,0.599 2.758,0.599 v 0 c 1.589,0 3.043,-0.554 4.182,-1.483 v 0 l 10.478,12.577 c -1.124,1.198 -1.813,2.788 -1.813,4.556 v 0 c 0,0.764 0.134,1.514 0.374,2.189 v 0 l -56.182,38.255 c -0.166,-0.42 -0.375,-0.825 -0.615,-1.2"
               style="fill:url(#linearGradient4902);stroke:none"
               id="path4904"
               inkscape:connector-curvature="0" /></g></g></g></g><g
       id="g4906"
       inkscape:export-filename="nebulae.png"
       inkscape:export-xdpi="96"
       inkscape:export-ydpi="96"><g
         id="g4908"
         clip-path="url(#clipPath4912)"><g
           id="g4914"
           transform="translate(438.4834,358.8535)"><path
             d="m 0,0 c 0,-1.484 -0.479,-2.848 -1.304,-3.958 -0.3,-0.419 -0.659,-0.794 -1.049,-1.109 -1.169,-1.019 -2.684,-1.619 -4.347,-1.619 -1.394,0 -2.684,0.42 -3.748,1.155 -0.42,0.284 -0.794,0.599 -1.124,0.974 -1.124,1.199 -1.814,2.788 -1.814,4.557 0,0.764 0.135,1.514 0.375,2.188 0.165,0.495 0.389,0.96 0.659,1.379 1.185,1.889 3.268,3.133 5.652,3.133 1.334,0 2.563,-0.389 3.612,-1.064 0.42,-0.27 0.825,-0.584 1.17,-0.944 C -0.734,3.478 0,1.844 0,0"
             style="fill:#502075;fill-opacity:1;fill-rule:nonzero;stroke:none"
             id="path4916"
             inkscape:connector-curvature="0" /></g><g
           id="g4918"
           transform="translate(348.1987,284.7578)"><path
             d="m 0,0 c 0,-3.703 -2.998,-6.701 -6.686,-6.701 -0.554,0 -1.094,0.075 -1.619,0.195 -0.494,0.12 -0.959,0.3 -1.408,0.54 -0.735,0.36 -1.38,0.855 -1.919,1.469 -0.345,0.359 -0.63,0.779 -0.885,1.214 -0.54,0.974 -0.854,2.098 -0.854,3.283 0,3.478 2.638,6.325 6.041,6.655 0.209,0.015 0.434,0.031 0.644,0.031 0.3,0 0.585,-0.016 0.87,-0.061 C -4.212,6.416 -2.788,5.636 -1.754,4.497 -1.409,4.137 -1.109,3.718 -0.87,3.282 -0.315,2.309 0,1.184 0,0"
             style="fill:#502075;fill-opacity:1;fill-rule:nonzero;stroke:none"
             id="path4920"
             inkscape:connector-curvature="0" /></g><g
           id="g4922"
           transform="translate(326.8828,271.3711)"><path
             d="m 0,0 c 0,-3.688 -2.998,-6.686 -6.686,-6.686 -0.225,0 -0.464,0.016 -0.689,0.031 -0.51,0.06 -0.989,0.165 -1.469,0.33 -2.638,0.899 -4.542,3.387 -4.542,6.325 0,3.703 2.998,6.686 6.7,6.686 0.66,0 1.29,-0.09 1.889,-0.27 0.48,-0.135 0.944,-0.33 1.379,-0.584 C -2.309,5.217 -1.394,4.287 -0.794,3.163 -0.555,2.714 -0.36,2.234 -0.225,1.725 -0.075,1.185 0,0.6 0,0"
             style="fill:#502075;fill-opacity:1;fill-rule:nonzero;stroke:none"
             id="path4924"
             inkscape:connector-curvature="0" /></g><g
           id="g4926"
           transform="translate(338.3501,242.4561)"><path
             d="m 0,0 c 0,-3.688 -2.998,-6.686 -6.686,-6.686 -0.509,0 -0.989,0.06 -1.454,0.165 -0.539,0.105 -1.049,0.299 -1.513,0.54 -2.219,1.079 -3.733,3.357 -3.733,5.981 0,3.702 2.998,6.7 6.7,6.7 0.405,0 0.795,-0.03 1.17,-0.104 0.495,-0.091 0.989,-0.226 1.439,-0.436 1.109,-0.464 2.054,-1.214 2.743,-2.173 0.15,-0.195 0.285,-0.389 0.405,-0.599 0.15,-0.241 0.284,-0.51 0.405,-0.78 C -0.18,1.799 0,0.914 0,0"
             style="fill:#502075;fill-opacity:1;fill-rule:nonzero;stroke:none"
             id="path4928"
             inkscape:connector-curvature="0" /></g><g
           id="g4930"
           transform="translate(306.811,200.8887)"><path
             d="m 0,0 c 0,-3.688 -2.998,-6.686 -6.686,-6.686 -1.394,0 -2.668,0.419 -3.732,1.139 h -0.015 c -0.135,0.09 -0.255,0.18 -0.375,0.285 -1.574,1.23 -2.578,3.133 -2.578,5.262 0,3.582 2.818,6.505 6.371,6.67 0.105,0.016 0.224,0.016 0.329,0.016 0.405,0 0.81,-0.031 1.2,-0.106 0.869,-0.165 1.694,-0.494 2.413,-0.959 0.24,-0.15 0.465,-0.314 0.659,-0.495 0.136,-0.105 0.256,-0.21 0.375,-0.329 0.045,-0.045 0.09,-0.091 0.121,-0.136 0.284,-0.269 0.524,-0.569 0.749,-0.884 0.285,-0.42 0.524,-0.869 0.705,-1.349 C -0.165,1.679 0,0.854 0,0"
             style="fill:#502075;fill-opacity:1;fill-rule:nonzero;stroke:none"
             id="path4932"
             inkscape:connector-curvature="0" /></g></g></g><g
       id="g4934"
       inkscape:export-filename="nebulae.png"
       inkscape:export-xdpi="96"
       inkscape:export-ydpi="96"><g
         id="g4936"><g
           id="g4942"><g
             id="g4944"><path
               d="m 412.251,329.818 c -1.139,0 -2.218,0.285 -3.148,0.779 v 0 l -71.277,-85.532 c 0.345,-0.81 0.524,-1.695 0.524,-2.609 v 0 c 0,-3.688 -2.998,-6.686 -6.686,-6.686 v 0 c -0.509,0 -0.989,0.06 -1.454,0.165 v 0 L 304.893,205.55 c 0.284,-0.27 0.524,-0.57 0.749,-0.884 v 0 l 127.296,92.219 c -0.72,1.079 -1.155,2.368 -1.155,3.777 v 0 c 0,2.203 1.079,4.167 2.743,5.381 v 0 l -18.407,25.019 c -1.095,-0.78 -2.43,-1.244 -3.868,-1.244"
               style="fill:url(#linearGradient4956);stroke:none"
               id="path4958"
               inkscape:connector-curvature="0" /></g></g></g></g><g
       id="g4960"
       inkscape:export-filename="nebulae.png"
       inkscape:export-xdpi="96"
       inkscape:export-ydpi="96"><g
         id="g4962"
         clip-path="url(#clipPath4966)"><g
           id="g4968"
           transform="translate(445.1694,300.6621)"><path
             d="m 0,0 c 0,-0.315 -0.03,-0.645 -0.075,-0.944 -0.18,-1.289 -0.72,-2.458 -1.544,-3.403 -0.315,-0.39 -0.69,-0.735 -1.11,-1.035 -1.109,-0.824 -2.473,-1.304 -3.957,-1.304 -1.769,0 -3.357,0.675 -4.542,1.785 -0.375,0.329 -0.704,0.718 -1.004,1.124 -0.72,1.079 -1.154,2.368 -1.154,3.777 0,2.204 1.079,4.167 2.743,5.381 0.405,0.3 0.839,0.555 1.304,0.765 0.809,0.345 1.709,0.54 2.653,0.54 3.493,0 6.371,-2.699 6.656,-6.116 C -0.015,0.375 0,0.195 0,0"
             style="fill:#502075;fill-opacity:1;fill-rule:nonzero;stroke:none"
             id="path4970"
             inkscape:connector-curvature="0" /></g><g
           id="g4972"
           transform="translate(526.46,298.1289)"><path
             d="m 0,0 c 0,-0.915 -0.194,-1.799 -0.524,-2.608 -0.196,-0.465 -0.45,-0.9 -0.75,-1.305 -0.255,-0.359 -0.554,-0.704 -0.884,-0.989 -0.361,-0.345 -0.765,-0.645 -1.199,-0.884 -0.975,-0.57 -2.114,-0.9 -3.329,-0.9 -1.454,0 -2.802,0.465 -3.897,1.259 -0.42,0.3 -0.794,0.645 -1.109,1.02 -0.914,1.019 -1.514,2.339 -1.649,3.777 -0.014,0.21 -0.03,0.42 -0.03,0.63 0,0.3 0.016,0.584 0.06,0.869 0.015,0.15 0.045,0.315 0.075,0.465 0.105,0.495 0.255,0.974 0.465,1.424 0,0.03 0.014,0.045 0.03,0.075 0.21,0.45 0.479,0.884 0.779,1.274 0.06,0.075 0.12,0.15 0.18,0.225 0.33,0.375 0.689,0.719 1.094,1.02 1.11,0.839 2.503,1.334 4.002,1.334 1.23,0 2.399,-0.331 3.388,-0.93 0.36,-0.195 0.69,-0.435 1.005,-0.705 0.06,-0.059 0.135,-0.119 0.194,-0.195 0.3,-0.269 0.57,-0.584 0.81,-0.914 0.165,-0.225 0.315,-0.449 0.45,-0.69 C -0.6,2.818 -0.404,2.354 -0.27,1.874 -0.09,1.274 0,0.645 0,0"
             style="fill:#502075;fill-opacity:1;fill-rule:nonzero;stroke:none"
             id="path4974"
             inkscape:connector-curvature="0" /></g><g
           id="g4976"
           transform="translate(582.1631,232.6221)"><path
             d="m 0,0 c 0,-3.688 -2.998,-6.686 -6.7,-6.686 -3.688,0 -6.686,2.998 -6.686,6.686 0,1.319 0.374,2.549 1.049,3.583 0.27,0.435 0.585,0.839 0.96,1.184 1.214,1.199 2.848,1.934 4.677,1.934 0.389,0 0.764,-0.03 1.124,-0.105 0.51,-0.075 0.989,-0.21 1.439,-0.405 C -1.709,5.187 0,2.788 0,0"
             style="fill:#502075;fill-opacity:1;fill-rule:nonzero;stroke:none"
             id="path4978"
             inkscape:connector-curvature="0" /></g><g
           id="g4980"
           transform="translate(484.7432,248.1523)"><path
             d="m 0,0 c 0,-3.703 -2.998,-6.701 -6.701,-6.701 -3.688,0 -6.686,2.998 -6.686,6.701 0,1.934 0.825,3.688 2.159,4.901 0.36,0.345 0.765,0.645 1.2,0.9 0.973,0.554 2.113,0.885 3.327,0.885 1.349,0 2.608,-0.406 3.673,-1.095 0.42,-0.27 0.809,-0.6 1.139,-0.959 C -0.72,3.447 0,1.799 0,0"
             style="fill:#502075;fill-opacity:1;fill-rule:nonzero;stroke:none"
             id="path4982"
             inkscape:connector-curvature="0" /></g><g
           id="g4984"
           transform="translate(457.1611,378.4004)"><path
             d="m 0,0 c 0,-1.244 -0.33,-2.398 -0.93,-3.388 -0.255,-0.449 -0.569,-0.854 -0.928,-1.229 -1.215,-1.289 -2.923,-2.084 -4.828,-2.084 -2.053,0 -3.897,0.93 -5.126,2.384 -0.33,0.39 -0.629,0.839 -0.855,1.319 -0.464,0.899 -0.719,1.919 -0.719,2.998 0,3.688 2.998,6.686 6.7,6.686 C -2.998,6.686 0,3.688 0,0"
             style="fill:#502075;fill-opacity:1;fill-rule:nonzero;stroke:none"
             id="path4986"
             inkscape:connector-curvature="0" /></g><g
           id="g4988"
           transform="translate(639.2451,434.9878)"><path
             d="m 0,0 c 0,-3.703 -2.998,-6.686 -6.7,-6.686 -0.361,0 -0.72,0.03 -1.065,0.09 -0.509,0.075 -0.989,0.21 -1.454,0.405 -0.404,0.165 -0.779,0.36 -1.139,0.6 -0.419,0.27 -0.81,0.584 -1.139,0.944 -1.17,1.199 -1.889,2.848 -1.889,4.647 0,3.688 2.998,6.686 6.686,6.686 C -2.998,6.686 0,3.688 0,0"
             style="fill:#502075;fill-opacity:1;fill-rule:nonzero;stroke:none"
             id="path4990"
             inkscape:connector-curvature="0" /></g><g
           id="g4992"
           transform="translate(624.2998,378.4004)"><path
             d="m 0,0 c 0,-3.703 -2.998,-6.701 -6.686,-6.701 -0.718,0 -1.393,0.105 -2.038,0.315 -0.495,0.15 -0.96,0.36 -1.379,0.63 -1.214,0.719 -2.173,1.814 -2.743,3.133 -0.21,0.495 -0.36,1.034 -0.435,1.589 -0.06,0.329 -0.09,0.674 -0.09,1.034 0,3.688 2.983,6.686 6.685,6.686 h 0.09 c 0.51,0 1.02,-0.076 1.499,-0.195 C -2.173,5.771 0,3.133 0,0"
             style="fill:#502075;fill-opacity:1;fill-rule:nonzero;stroke:none"
             id="path4994"
             inkscape:connector-curvature="0" /></g><g
           id="g4996"
           transform="translate(610.1348,331.7666)"><path
             d="m 0,0 c 0,-3.703 -2.998,-6.701 -6.686,-6.701 -0.36,0 -0.719,0.03 -1.079,0.09 -0.509,0.075 -0.99,0.225 -1.454,0.405 -1.439,0.584 -2.624,1.664 -3.358,3.028 -0.225,0.435 -0.419,0.899 -0.555,1.394 -0.149,0.57 -0.239,1.169 -0.239,1.784 0,3.688 2.982,6.686 6.685,6.686 0.36,0 0.72,-0.031 1.08,-0.091 C -5.097,6.521 -4.617,6.371 -4.152,6.191 -1.724,5.187 0,2.788 0,0"
             style="fill:#502075;fill-opacity:1;fill-rule:nonzero;stroke:none"
             id="path4998"
             inkscape:connector-curvature="0" /></g><g
           id="g5000"
           transform="translate(588.8486,264.8057)"><path
             d="m 0,0 c 0,-3.223 -2.293,-5.921 -5.336,-6.551 -0.435,-0.09 -0.885,-0.135 -1.35,-0.135 -0.089,0 -0.165,0 -0.254,0.016 -3.582,0.119 -6.446,3.072 -6.446,6.67 0,1.229 0.329,2.368 0.9,3.343 0.255,0.45 0.554,0.854 0.899,1.215 h 0.015 c 1.199,1.318 2.953,2.143 4.886,2.143 1.185,0 2.309,-0.315 3.284,-0.854 V 5.831 C -2.938,5.576 -2.503,5.247 -2.113,4.887 V 4.872 C -0.81,3.658 0,1.919 0,0"
             style="fill:#502075;fill-opacity:1;fill-rule:nonzero;stroke:none"
             id="path5002"
             inkscape:connector-curvature="0" /></g><g
           id="g5004"
           transform="translate(281.0776,133.8643)"><path
             d="M 0,0 C -1.205,0 -2.322,0.187 -3.35,0.564 -4.379,0.94 -5.345,1.555 -6.249,2.409 L -43.668,37.645 V 1.129 h -10.616 v 47.733 c 0,1.607 0.565,2.798 1.695,3.576 1.129,0.779 2.597,1.167 4.404,1.167 1.305,0 2.383,-0.175 3.237,-0.526 0.853,-0.352 1.555,-0.804 2.109,-1.355 L -5.12,15.358 V 52.477 H 5.722 V 4.743 C 5.722,3.036 5.195,1.818 4.141,1.091 3.087,0.364 1.706,0 0,0"
             style="fill:#231f20;fill-opacity:1;fill-rule:nonzero;stroke:none"
             id="path5006"
             inkscape:connector-curvature="0" /></g><g
           id="g5008"
           transform="translate(314.7314,134.9932)"><path
             d="m 0,0 c -3.765,0 -6.902,0.312 -9.411,0.941 -2.511,0.627 -4.518,1.63 -6.024,3.012 -1.505,1.38 -2.572,3.187 -3.199,5.421 -0.629,2.232 -0.942,4.98 -0.942,8.244 v 16.111 c 0,3.212 0.313,5.949 0.942,8.208 0.627,2.258 1.694,4.077 3.199,5.458 1.506,1.379 3.513,2.383 6.024,3.011 2.509,0.627 5.646,0.942 9.411,0.942 H 35.264 V 41.635 H 0 c -1.657,0 -3.012,-0.139 -4.066,-0.414 -1.054,-0.277 -1.895,-0.715 -2.522,-1.318 -0.628,-0.602 -1.054,-1.405 -1.28,-2.409 -0.226,-1.005 -0.339,-2.259 -0.339,-3.765 V 30.267 H 35.537 V 21.156 H -8.207 v -3.613 c 0,-1.557 0.113,-2.837 0.339,-3.84 0.226,-1.005 0.64,-1.807 1.243,-2.41 0.602,-0.602 1.441,-1.016 2.521,-1.242 C -3.025,9.825 -1.657,9.712 0,9.712 H 35.838 V 0 Z"
             style="fill:#231f20;fill-opacity:1;fill-rule:nonzero;stroke:none"
             id="path5010"
             inkscape:connector-curvature="0" /></g><g
           id="g5012"
           transform="translate(369.3164,156.9023)"><path
             d="m 0,0 v -12.573 h 31.998 c 2.157,0 3.701,0.288 4.63,0.866 0.928,0.576 1.393,1.668 1.393,3.274 v 3.162 c 0,2.109 -0.414,3.513 -1.242,4.217 C 35.951,-0.352 34.482,0 32.375,0 Z M 0,20.103 V 8.282 h 32.073 c 2.007,0 3.388,0.325 4.141,0.979 0.753,0.651 1.129,1.832 1.129,3.539 v 3.237 c 0,1.555 -0.464,2.622 -1.392,3.199 -0.93,0.577 -2.598,0.867 -5.007,0.867 z m -11.444,9.335 h 43.291 c 2.911,0 5.395,-0.201 7.454,-0.602 2.057,-0.402 3.727,-1.066 5.007,-1.995 1.28,-0.93 2.221,-2.134 2.823,-3.614 0.602,-1.481 0.904,-3.301 0.904,-5.458 v -4.217 c 0,-3.011 -0.528,-5.17 -1.581,-6.475 -1.055,-1.306 -2.385,-2.183 -3.991,-2.635 0.904,-0.201 1.744,-0.515 2.522,-0.941 0.778,-0.427 1.443,-1.042 1.995,-1.845 0.552,-0.803 0.979,-1.844 1.28,-3.124 0.302,-1.28 0.452,-2.874 0.452,-4.781 v -4.518 c 0,-2.058 -0.289,-3.79 -0.866,-5.194 -0.577,-1.406 -1.506,-2.549 -2.785,-3.426 -1.28,-0.879 -2.95,-1.518 -5.007,-1.92 -2.059,-0.402 -4.543,-0.602 -7.454,-0.602 h -44.044 z"
             style="fill:#231f20;fill-opacity:1;fill-rule:nonzero;stroke:none"
             id="path5014"
             inkscape:connector-curvature="0" /></g><g
           id="g5016"
           transform="translate(444.8311,134.9932)"><path
             d="m 0,0 c -3.765,0 -6.902,0.312 -9.412,0.941 -2.51,0.627 -4.517,1.63 -6.023,3.012 -1.505,1.38 -2.573,3.187 -3.2,5.421 -0.628,2.232 -0.941,4.98 -0.941,8.244 v 33.73 H -8.057 V 17.994 c 0,-1.606 0.163,-2.925 0.49,-3.952 0.326,-1.03 0.84,-1.871 1.544,-2.522 0.702,-0.654 1.643,-1.105 2.823,-1.356 1.179,-0.252 2.622,-0.376 4.329,-0.376 H 18.37 c 1.706,0 3.15,0.124 4.329,0.376 1.179,0.251 2.12,0.702 2.824,1.356 0.703,0.651 1.216,1.505 1.543,2.559 0.327,1.054 0.49,2.384 0.49,3.99 v 33.279 h 11.368 v -33.73 c 0,-3.264 -0.314,-6.012 -0.941,-8.244 C 37.354,7.14 36.289,5.333 34.783,3.953 33.277,2.571 31.27,1.568 28.761,0.941 26.25,0.312 23.088,0 19.274,0 Z"
             style="fill:#231f20;fill-opacity:1;fill-rule:nonzero;stroke:none"
             id="path5018"
             inkscape:connector-curvature="0" /></g><g
           id="g5020"
           transform="translate(511.6875,134.9932)"><path
             d="m 0,0 c -3.765,0 -6.902,0.312 -9.412,0.941 -2.51,0.627 -4.517,1.63 -6.023,3.012 -1.505,1.38 -2.573,3.187 -3.2,5.421 -0.628,2.232 -0.941,4.98 -0.941,8.244 v 33.73 H -8.207 V 18.069 c 0,-1.506 0.138,-2.773 0.414,-3.801 0.275,-1.03 0.765,-1.883 1.468,-2.56 0.703,-0.678 1.643,-1.167 2.824,-1.469 1.179,-0.301 2.672,-0.451 4.48,-0.451 H 31.471 V 0 Z"
             style="fill:#231f20;fill-opacity:1;fill-rule:nonzero;stroke:none"
             id="path5022"
             inkscape:connector-curvature="0" /></g><g
           id="g5024"
           transform="translate(571.0898,155.6221)"><path
             d="M 0,0 H 24.846 L 12.423,20.253 Z M 30.191,-8.809 H -5.346 l -7.302,-11.82 H -25.824 L 3.99,26.804 c 0.904,1.455 1.983,2.66 3.238,3.613 1.253,0.953 3.061,1.431 5.42,1.431 2.309,0 4.091,-0.478 5.346,-1.431 1.254,-0.953 2.334,-2.158 3.237,-3.613 L 50.896,-20.629 H 37.645 Z"
             style="fill:#231f20;fill-opacity:1;fill-rule:nonzero;stroke:none"
             id="path5026"
             inkscape:connector-curvature="0" /></g><g
           id="g5028"
           transform="translate(643.293,134.9932)"><path
             d="m 0,0 c -3.764,0 -6.901,0.312 -9.411,0.941 -2.51,0.627 -4.518,1.63 -6.023,3.012 -1.505,1.38 -2.573,3.187 -3.2,5.421 -0.628,2.232 -0.941,4.98 -0.941,8.244 v 16.111 c 0,3.212 0.313,5.949 0.941,8.208 0.627,2.258 1.695,4.077 3.2,5.458 1.505,1.379 3.513,2.383 6.023,3.011 2.51,0.627 5.647,0.942 9.411,0.942 H 35.838 V 41.635 H 0 c -1.656,0 -3.012,-0.139 -4.065,-0.414 -1.054,-0.277 -1.896,-0.715 -2.523,-1.318 -0.628,-0.602 -1.054,-1.405 -1.279,-2.409 -0.227,-1.005 -0.339,-2.259 -0.339,-3.765 V 30.267 H 35.537 V 21.156 H -8.206 v -3.613 c 0,-1.557 0.112,-2.837 0.339,-3.84 0.225,-1.005 0.639,-1.807 1.242,-2.41 0.603,-0.602 1.442,-1.016 2.522,-1.242 C -3.024,9.825 -1.656,9.712 0,9.712 H 35.838 V 0 Z"
             style="fill:#231f20;fill-opacity:1;fill-rule:nonzero;stroke:none"
             id="path5030"
             inkscape:connector-curvature="0" /></g></g></g></g></svg>